<!DOCTYPE svg PUBLIC "-//W3C//DTD SVG 20010904//EN" "http://www.w3.org/TR/2001/REC-SVG-20010904/DTD/svg10.dtd">
<svg version="1.0" xmlns="http://www.w3.org/2000/svg" width="500px" height="300px" viewBox="0 0 5000 3000" preserveAspectRatio="xMidYMid meet">
<g id="layer101" fill="#122439" stroke="none">
 <path d="M1182 2249 c-225 -38 -426 -228 -447 -424 -17 -158 50 -331 287 -740 114 -196 163 -252 268 -306 67 -34 214 -39 307 -10 86 26 178 80 247 146 110 105 127 191 62 317 l-38 74 48 107 c39 90 53 111 83 129 20 11 57 42 84 67 l47 45 0 -262 0 -262 152 0 c133 0 157 3 194 21 113 54 117 205 8 266 -21 13 -34 23 -27 23 6 0 25 14 42 30 23 23 33 48 46 108 9 42 19 85 22 95 4 15 -3 17 -51 17 l-55 0 -18 -82 c-27 -128 -64 -168 -155 -168 l-48 0 0 125 0 125 -45 0 -46 0 15 28 c23 45 29 110 15 160 -10 37 -28 63 -88 123 -63 62 -95 84 -181 127 -114 55 -236 94 -369 117 -91 16 -274 18 -359 4z m754 -544 c17 -13 17 -14 1 -15 -11 0 -26 -19 -43 -57 l-25 -58 -20 24 c-26 32 -24 67 6 96 28 28 53 31 81 10z m447 -299 c82 -34 101 -150 36 -216 -29 -28 -35 -30 -105 -30 l-74 0 0 130 0 130 55 0 c31 0 70 -6 88 -14z"/>
 <path d="M2724 1976 c-10 -8 -16 -18 -12 -22 4 -4 15 -1 23 6 12 10 19 10 28 1 9 -9 5 -17 -17 -34 -36 -29 -33 -62 7 -62 15 0 26 4 25 10 -2 5 -11 8 -20 7 -26 -5 -22 13 7 32 30 20 33 51 6 66 -25 13 -23 13 -47 -4z"/>
 <path d="M2873 1983 c-8 -3 -13 -22 -12 -46 l1 -42 8 33 c4 18 10 35 13 39 12 11 27 -10 27 -38 0 -16 5 -29 10 -29 6 0 10 18 10 40 0 22 -4 40 -9 40 -5 0 -15 2 -23 4 -7 3 -19 2 -25 -1z"/>
 <path d="M2964 1982 c-35 -24 -20 -82 21 -82 18 0 25 -5 25 -20 0 -11 5 -20 10 -20 6 0 10 26 10 59 0 52 -2 59 -22 65 -29 7 -31 7 -44 -2z m35 -58 c-14 -14 -17 -14 -29 0 -10 13 -10 19 0 32 12 14 15 14 29 0 14 -15 14 -17 0 -32z"/>
 <path d="M3056 1977 c-12 -9 -17 -23 -14 -42 2 -25 8 -31 32 -33 28 -4 46 10 46 36 0 7 -13 12 -31 12 -18 0 -28 4 -24 10 3 6 18 8 33 4 26 -5 26 -5 8 10 -24 19 -27 20 -50 3z m36 -59 c-9 -9 -15 -9 -24 0 -9 9 -7 12 12 12 19 0 21 -3 12 -12z"/>
 <path d="M3623 1978 c-30 -15 -39 -62 -18 -94 13 -20 23 -24 47 -22 17 2 33 8 35 14 2 6 -7 9 -25 6 -35 -5 -57 18 -48 52 7 29 31 40 57 26 15 -8 19 -7 19 5 0 8 -4 15 -9 15 -5 0 -15 2 -23 4 -7 3 -23 0 -35 -6z"/>
 <path d="M3716 1977 c-12 -9 -17 -23 -14 -42 2 -25 8 -31 32 -33 16 -2 32 2 37 10 15 23 10 57 -10 68 -25 13 -24 13 -45 -3z m42 -34 c4 -24 -26 -40 -34 -18 -8 21 3 47 19 43 6 -3 13 -14 15 -25z"/>
 <path d="M3876 1974 c-33 -32 -14 -77 30 -72 21 2 30 9 32 26 3 19 -1 22 -28 22 -18 0 -29 4 -25 10 3 6 18 8 33 4 26 -5 26 -5 8 10 -25 20 -31 20 -50 0z m36 -56 c-9 -9 -15 -9 -24 0 -9 9 -7 12 12 12 19 0 21 -3 12 -12z"/>
 <path d="M3966 1977 c-12 -9 -17 -23 -14 -42 3 -26 8 -30 37 -33 19 -2 41 -11 48 -20 11 -16 12 -16 13 0 0 9 6 19 13 21 10 4 10 6 0 6 -8 1 -13 15 -13 36 0 19 -4 35 -10 35 -5 0 -10 -15 -10 -33 0 -29 -3 -33 -27 -32 -23 0 -28 5 -28 25 0 20 5 25 23 23 25 -3 30 12 6 21 -20 8 -17 8 -38 -7z"/>
 <path d="M4214 1982 c-18 -12 -24 -43 -13 -63 15 -29 63 -22 67 9 3 18 -1 22 -22 22 -14 0 -26 5 -26 11 0 7 10 9 25 5 14 -4 25 -2 25 4 0 5 -4 10 -9 10 -5 0 -15 2 -23 5 -7 3 -18 1 -24 -3z"/>
 <path d="M2810 1946 c0 -19 -6 -37 -12 -39 -10 -4 -10 -6 0 -6 6 -1 12 -8 12 -16 0 -8 5 -15 10 -15 6 0 10 6 10 14 0 8 6 17 13 19 10 4 10 6 0 6 -8 1 -13 15 -13 36 0 19 -4 35 -10 35 -5 0 -10 -15 -10 -34z"/>
 <path d="M3130 1940 c0 -39 1 -40 34 -40 22 0 36 6 40 16 9 25 7 64 -4 64 -5 0 -10 -11 -10 -24 0 -25 -22 -51 -33 -39 -4 3 -7 19 -7 35 0 15 -4 28 -10 28 -5 0 -10 -18 -10 -40z"/>
 <path d="M3230 1946 c0 -19 -6 -37 -12 -39 -10 -4 -10 -6 0 -6 6 -1 12 -8 12 -16 0 -21 18 -19 22 2 5 29 -4 93 -13 93 -5 0 -9 -15 -9 -34z"/>
 <path d="M3320 1971 c0 -21 44 -111 54 -111 6 0 21 26 33 57 23 57 23 77 1 55 -15 -15 -68 -16 -68 -2 0 6 -4 10 -10 10 -5 0 -10 -4 -10 -9z m69 -38 c0 -5 -4 -16 -8 -26 -6 -17 -8 -16 -19 7 -10 23 -9 26 8 26 11 0 20 -3 19 -7z"/>
 <path d="M3440 1940 c0 -38 2 -40 30 -40 20 0 30 -5 30 -15 0 -21 18 -19 22 2 5 29 -4 93 -13 93 -5 0 -9 -16 -9 -36 0 -29 -3 -35 -16 -30 -9 3 -18 6 -20 6 -2 0 -4 14 -4 30 0 17 -4 30 -10 30 -5 0 -10 -18 -10 -40z"/>
 <path d="M3790 1920 c0 -33 4 -60 10 -60 6 0 10 27 10 60 0 33 -4 60 -10 60 -6 0 -10 -27 -10 -60z"/>
 <path d="M3830 1920 c0 -33 4 -60 10 -60 6 0 10 27 10 60 0 33 -4 60 -10 60 -6 0 -10 -27 -10 -60z"/>
 <path d="M4080 1940 c0 -22 5 -40 10 -40 6 0 10 18 10 40 0 22 -4 40 -10 40 -5 0 -10 -18 -10 -40z"/>
 <path d="M4125 1944 c-18 -43 -18 -44 -6 -44 5 0 13 9 16 20 7 23 25 27 25 6 0 -15 18 -31 26 -24 7 8 -25 78 -36 78 -5 0 -17 -16 -25 -36z"/>
 <path d="M3354 1684 c-54 -19 -118 -75 -151 -131 -40 -69 -45 -181 -11 -255 30 -65 87 -124 146 -150 51 -23 147 -26 210 -7 52 15 119 70 108 88 -6 9 -15 6 -35 -12 -44 -42 -92 -60 -158 -61 -54 -1 -65 3 -99 30 -56 45 -77 93 -82 190 -6 108 3 163 34 210 37 56 70 77 130 82 65 5 109 -9 169 -55 46 -35 63 -38 52 -8 -8 20 -92 73 -137 85 -49 14 -128 11 -176 -6z"/>
 <path d="M3939 1686 c-131 -46 -211 -171 -195 -303 8 -72 26 -112 72 -163 58 -64 122 -92 209 -92 88 0 146 23 205 82 60 60 80 109 80 200 0 95 -28 159 -94 217 -77 68 -188 91 -277 59z m175 -42 c60 -41 86 -107 86 -224 0 -123 -12 -165 -64 -216 -55 -55 -107 -65 -172 -34 -26 13 -56 38 -69 59 -58 87 -59 278 -2 363 54 80 147 102 221 52z"/>
 <path d="M2830 1425 l0 -265 -85 0 c-69 0 -85 -3 -85 -15 0 -13 31 -15 220 -15 189 0 220 2 220 15 0 12 -16 15 -85 15 l-85 0 0 265 0 265 -50 0 -50 0 0 -265z"/>
 </g>
<g id="layer102" fill="#e92025" stroke="none">
 <path d="M1182 2249 c-225 -38 -426 -228 -447 -424 -17 -158 50 -331 287 -740 114 -196 163 -252 268 -306 67 -34 214 -39 307 -10 86 26 178 80 247 146 110 105 127 191 62 317 l-38 74 48 107 c39 90 53 111 83 129 20 11 57 42 84 67 l47 45 0 -262 0 -262 152 0 c133 0 157 3 194 21 113 54 117 205 8 266 -21 13 -34 23 -27 23 6 0 25 14 42 30 23 23 33 48 46 108 9 42 19 85 22 95 4 15 -3 17 -51 17 l-55 0 -18 -82 c-27 -128 -64 -168 -155 -168 l-48 0 0 125 0 125 -45 0 -46 0 15 28 c23 45 29 110 15 160 -10 37 -28 63 -88 123 -63 62 -95 84 -181 127 -114 55 -236 94 -369 117 -91 16 -274 18 -359 4z m754 -544 c17 -13 17 -14 1 -15 -11 0 -26 -19 -43 -57 l-25 -58 -20 24 c-26 32 -24 67 6 96 28 28 53 31 81 10z m447 -299 c82 -34 101 -150 36 -216 -29 -28 -35 -30 -105 -30 l-74 0 0 130 0 130 55 0 c31 0 70 -6 88 -14z m-822 -127 l81 -81 -4 -50 c-5 -45 -11 -55 -69 -112 -35 -34 -70 -70 -77 -79 -17 -22 -30 -18 -152 43 -94 47 -95 48 -97 86 -4 49 62 199 98 226 28 21 94 47 121 48 10 0 54 -36 99 -81z"/>
 <path d="M2724 1976 c-10 -8 -16 -18 -12 -22 4 -4 15 -1 23 6 12 10 19 10 28 1 9 -9 5 -17 -17 -34 -36 -29 -33 -62 7 -62 15 0 26 4 25 10 -2 5 -11 8 -20 7 -26 -5 -22 13 7 32 30 20 33 51 6 66 -25 13 -23 13 -47 -4z"/>
 <path d="M2873 1983 c-8 -3 -13 -22 -12 -46 l1 -42 8 33 c4 18 10 35 13 39 12 11 27 -10 27 -38 0 -16 5 -29 10 -29 6 0 10 18 10 40 0 22 -4 40 -9 40 -5 0 -15 2 -23 4 -7 3 -19 2 -25 -1z"/>
 <path d="M2964 1982 c-35 -24 -20 -82 21 -82 18 0 25 -5 25 -20 0 -11 5 -20 10 -20 6 0 10 26 10 59 0 52 -2 59 -22 65 -29 7 -31 7 -44 -2z m35 -58 c-14 -14 -17 -14 -29 0 -10 13 -10 19 0 32 12 14 15 14 29 0 14 -15 14 -17 0 -32z"/>
 <path d="M3056 1977 c-12 -9 -17 -23 -14 -42 2 -25 8 -31 32 -33 28 -4 46 10 46 36 0 7 -13 12 -31 12 -18 0 -28 4 -24 10 3 6 18 8 33 4 26 -5 26 -5 8 10 -24 19 -27 20 -50 3z m36 -59 c-9 -9 -15 -9 -24 0 -9 9 -7 12 12 12 19 0 21 -3 12 -12z"/>
 <path d="M3623 1978 c-30 -15 -39 -62 -18 -94 13 -20 23 -24 47 -22 17 2 33 8 35 14 2 6 -7 9 -25 6 -35 -5 -57 18 -48 52 7 29 31 40 57 26 15 -8 19 -7 19 5 0 8 -4 15 -9 15 -5 0 -15 2 -23 4 -7 3 -23 0 -35 -6z"/>
 <path d="M3716 1977 c-12 -9 -17 -23 -14 -42 2 -25 8 -31 32 -33 16 -2 32 2 37 10 15 23 10 57 -10 68 -25 13 -24 13 -45 -3z m42 -34 c4 -24 -26 -40 -34 -18 -8 21 3 47 19 43 6 -3 13 -14 15 -25z"/>
 <path d="M3876 1974 c-33 -32 -14 -77 30 -72 21 2 30 9 32 26 3 19 -1 22 -28 22 -18 0 -29 4 -25 10 3 6 18 8 33 4 26 -5 26 -5 8 10 -25 20 -31 20 -50 0z m36 -56 c-9 -9 -15 -9 -24 0 -9 9 -7 12 12 12 19 0 21 -3 12 -12z"/>
 <path d="M3966 1977 c-12 -9 -17 -23 -14 -42 3 -26 8 -30 37 -33 19 -2 41 -11 48 -20 11 -16 12 -16 13 0 0 9 6 19 13 21 10 4 10 6 0 6 -8 1 -13 15 -13 36 0 19 -4 35 -10 35 -5 0 -10 -15 -10 -33 0 -29 -3 -33 -27 -32 -23 0 -28 5 -28 25 0 20 5 25 23 23 25 -3 30 12 6 21 -20 8 -17 8 -38 -7z"/>
 <path d="M4214 1982 c-18 -12 -24 -43 -13 -63 15 -29 63 -22 67 9 3 18 -1 22 -22 22 -14 0 -26 5 -26 11 0 7 10 9 25 5 14 -4 25 -2 25 4 0 5 -4 10 -9 10 -5 0 -15 2 -23 5 -7 3 -18 1 -24 -3z"/>
 <path d="M2810 1946 c0 -19 -6 -37 -12 -39 -10 -4 -10 -6 0 -6 6 -1 12 -8 12 -16 0 -8 5 -15 10 -15 6 0 10 6 10 14 0 8 6 17 13 19 10 4 10 6 0 6 -8 1 -13 15 -13 36 0 19 -4 35 -10 35 -5 0 -10 -15 -10 -34z"/>
 <path d="M3130 1940 c0 -39 1 -40 34 -40 22 0 36 6 40 16 9 25 7 64 -4 64 -5 0 -10 -11 -10 -24 0 -25 -22 -51 -33 -39 -4 3 -7 19 -7 35 0 15 -4 28 -10 28 -5 0 -10 -18 -10 -40z"/>
 <path d="M3230 1946 c0 -19 -6 -37 -12 -39 -10 -4 -10 -6 0 -6 6 -1 12 -8 12 -16 0 -21 18 -19 22 2 5 29 -4 93 -13 93 -5 0 -9 -15 -9 -34z"/>
 <path d="M3320 1971 c0 -21 44 -111 54 -111 6 0 21 26 33 57 23 57 23 77 1 55 -15 -15 -68 -16 -68 -2 0 6 -4 10 -10 10 -5 0 -10 -4 -10 -9z m69 -38 c0 -5 -4 -16 -8 -26 -6 -17 -8 -16 -19 7 -10 23 -9 26 8 26 11 0 20 -3 19 -7z"/>
 <path d="M3440 1940 c0 -38 2 -40 30 -40 20 0 30 -5 30 -15 0 -21 18 -19 22 2 5 29 -4 93 -13 93 -5 0 -9 -16 -9 -36 0 -29 -3 -35 -16 -30 -9 3 -18 6 -20 6 -2 0 -4 14 -4 30 0 17 -4 30 -10 30 -5 0 -10 -18 -10 -40z"/>
 <path d="M3790 1920 c0 -33 4 -60 10 -60 6 0 10 27 10 60 0 33 -4 60 -10 60 -6 0 -10 -27 -10 -60z"/>
 <path d="M3830 1920 c0 -33 4 -60 10 -60 6 0 10 27 10 60 0 33 -4 60 -10 60 -6 0 -10 -27 -10 -60z"/>
 <path d="M4080 1940 c0 -22 5 -40 10 -40 6 0 10 18 10 40 0 22 -4 40 -10 40 -5 0 -10 -18 -10 -40z"/>
 <path d="M4125 1944 c-18 -43 -18 -44 -6 -44 5 0 13 9 16 20 7 23 25 27 25 6 0 -15 18 -31 26 -24 7 8 -25 78 -36 78 -5 0 -17 -16 -25 -36z"/>
 <path d="M3354 1684 c-54 -19 -118 -75 -151 -131 -40 -69 -45 -181 -11 -255 30 -65 87 -124 146 -150 51 -23 147 -26 210 -7 52 15 119 70 108 88 -6 9 -15 6 -35 -12 -44 -42 -92 -60 -158 -61 -54 -1 -65 3 -99 30 -56 45 -77 93 -82 190 -6 108 3 163 34 210 37 56 70 77 130 82 65 5 109 -9 169 -55 46 -35 63 -38 52 -8 -8 20 -92 73 -137 85 -49 14 -128 11 -176 -6z"/>
 <path d="M3939 1686 c-131 -46 -211 -171 -195 -303 8 -72 26 -112 72 -163 58 -64 122 -92 209 -92 88 0 146 23 205 82 60 60 80 109 80 200 0 95 -28 159 -94 217 -77 68 -188 91 -277 59z m175 -42 c60 -41 86 -107 86 -224 0 -123 -12 -165 -64 -216 -55 -55 -107 -65 -172 -34 -26 13 -56 38 -69 59 -58 87 -59 278 -2 363 54 80 147 102 221 52z"/>
 <path d="M2830 1425 l0 -265 -85 0 c-69 0 -85 -3 -85 -15 0 -13 31 -15 220 -15 189 0 220 2 220 15 0 12 -16 15 -85 15 l-85 0 0 265 0 265 -50 0 -50 0 0 -265z"/>
 </g>
<g id="layer103" fill="#866e3f" stroke="none">
 <path d="M1182 2249 c-225 -38 -426 -228 -447 -424 -17 -158 50 -331 287 -740 114 -196 163 -252 268 -306 67 -34 214 -39 307 -10 86 26 178 80 247 146 110 105 127 191 62 317 l-38 74 48 107 c39 90 53 111 83 129 20 11 57 42 84 67 l47 45 0 -262 0 -262 152 0 c133 0 157 3 194 21 113 54 117 205 8 266 -21 13 -34 23 -27 23 6 0 25 14 42 30 23 23 33 48 46 108 9 42 19 85 22 95 4 15 -3 17 -51 17 l-55 0 -18 -82 c-27 -128 -64 -168 -155 -168 l-48 0 0 125 0 125 -45 0 -46 0 15 28 c23 45 29 110 15 160 -10 37 -28 63 -88 123 -63 62 -95 84 -181 127 -114 55 -236 94 -369 117 -91 16 -274 18 -359 4z m754 -544 c17 -13 17 -14 1 -15 -11 0 -26 -19 -43 -57 l-25 -58 -20 24 c-26 32 -24 67 6 96 28 28 53 31 81 10z m-553 -134 c13 -10 37 -82 37 -110 0 -6 -21 -26 -46 -46 -38 -28 -56 -35 -91 -35 -34 0 -55 -7 -87 -31 -34 -24 -52 -30 -81 -27 -51 4 -74 36 -87 126 -11 67 -10 74 9 99 11 15 30 30 42 33 45 10 289 4 304 -9z m1000 -165 c82 -34 101 -150 36 -216 -29 -28 -35 -30 -105 -30 l-74 0 0 130 0 130 55 0 c31 0 70 -6 88 -14z m-822 -127 l81 -81 -4 -50 c-5 -45 -11 -55 -69 -112 -35 -34 -70 -70 -77 -79 -17 -22 -30 -18 -152 43 -94 47 -95 48 -97 86 -4 49 62 199 98 226 28 21 94 47 121 48 10 0 54 -36 99 -81z"/>
 <path d="M2724 1976 c-10 -8 -16 -18 -12 -22 4 -4 15 -1 23 6 12 10 19 10 28 1 9 -9 5 -17 -17 -34 -36 -29 -33 -62 7 -62 15 0 26 4 25 10 -2 5 -11 8 -20 7 -26 -5 -22 13 7 32 30 20 33 51 6 66 -25 13 -23 13 -47 -4z"/>
 <path d="M2873 1983 c-8 -3 -13 -22 -12 -46 l1 -42 8 33 c4 18 10 35 13 39 12 11 27 -10 27 -38 0 -16 5 -29 10 -29 6 0 10 18 10 40 0 22 -4 40 -9 40 -5 0 -15 2 -23 4 -7 3 -19 2 -25 -1z"/>
 <path d="M2964 1982 c-35 -24 -20 -82 21 -82 18 0 25 -5 25 -20 0 -11 5 -20 10 -20 6 0 10 26 10 59 0 52 -2 59 -22 65 -29 7 -31 7 -44 -2z m35 -58 c-14 -14 -17 -14 -29 0 -10 13 -10 19 0 32 12 14 15 14 29 0 14 -15 14 -17 0 -32z"/>
 <path d="M3056 1977 c-12 -9 -17 -23 -14 -42 2 -25 8 -31 32 -33 28 -4 46 10 46 36 0 7 -13 12 -31 12 -18 0 -28 4 -24 10 3 6 18 8 33 4 26 -5 26 -5 8 10 -24 19 -27 20 -50 3z m36 -59 c-9 -9 -15 -9 -24 0 -9 9 -7 12 12 12 19 0 21 -3 12 -12z"/>
 <path d="M3623 1978 c-30 -15 -39 -62 -18 -94 13 -20 23 -24 47 -22 17 2 33 8 35 14 2 6 -7 9 -25 6 -35 -5 -57 18 -48 52 7 29 31 40 57 26 15 -8 19 -7 19 5 0 8 -4 15 -9 15 -5 0 -15 2 -23 4 -7 3 -23 0 -35 -6z"/>
 <path d="M3716 1977 c-12 -9 -17 -23 -14 -42 2 -25 8 -31 32 -33 16 -2 32 2 37 10 15 23 10 57 -10 68 -25 13 -24 13 -45 -3z m42 -34 c4 -24 -26 -40 -34 -18 -8 21 3 47 19 43 6 -3 13 -14 15 -25z"/>
 <path d="M3876 1974 c-33 -32 -14 -77 30 -72 21 2 30 9 32 26 3 19 -1 22 -28 22 -18 0 -29 4 -25 10 3 6 18 8 33 4 26 -5 26 -5 8 10 -25 20 -31 20 -50 0z m36 -56 c-9 -9 -15 -9 -24 0 -9 9 -7 12 12 12 19 0 21 -3 12 -12z"/>
 <path d="M3966 1977 c-12 -9 -17 -23 -14 -42 3 -26 8 -30 37 -33 19 -2 41 -11 48 -20 11 -16 12 -16 13 0 0 9 6 19 13 21 10 4 10 6 0 6 -8 1 -13 15 -13 36 0 19 -4 35 -10 35 -5 0 -10 -15 -10 -33 0 -29 -3 -33 -27 -32 -23 0 -28 5 -28 25 0 20 5 25 23 23 25 -3 30 12 6 21 -20 8 -17 8 -38 -7z"/>
 <path d="M4214 1982 c-18 -12 -24 -43 -13 -63 15 -29 63 -22 67 9 3 18 -1 22 -22 22 -14 0 -26 5 -26 11 0 7 10 9 25 5 14 -4 25 -2 25 4 0 5 -4 10 -9 10 -5 0 -15 2 -23 5 -7 3 -18 1 -24 -3z"/>
 <path d="M2810 1946 c0 -19 -6 -37 -12 -39 -10 -4 -10 -6 0 -6 6 -1 12 -8 12 -16 0 -8 5 -15 10 -15 6 0 10 6 10 14 0 8 6 17 13 19 10 4 10 6 0 6 -8 1 -13 15 -13 36 0 19 -4 35 -10 35 -5 0 -10 -15 -10 -34z"/>
 <path d="M3130 1940 c0 -39 1 -40 34 -40 22 0 36 6 40 16 9 25 7 64 -4 64 -5 0 -10 -11 -10 -24 0 -25 -22 -51 -33 -39 -4 3 -7 19 -7 35 0 15 -4 28 -10 28 -5 0 -10 -18 -10 -40z"/>
 <path d="M3230 1946 c0 -19 -6 -37 -12 -39 -10 -4 -10 -6 0 -6 6 -1 12 -8 12 -16 0 -21 18 -19 22 2 5 29 -4 93 -13 93 -5 0 -9 -15 -9 -34z"/>
 <path d="M3320 1971 c0 -21 44 -111 54 -111 6 0 21 26 33 57 23 57 23 77 1 55 -15 -15 -68 -16 -68 -2 0 6 -4 10 -10 10 -5 0 -10 -4 -10 -9z m69 -38 c0 -5 -4 -16 -8 -26 -6 -17 -8 -16 -19 7 -10 23 -9 26 8 26 11 0 20 -3 19 -7z"/>
 <path d="M3440 1940 c0 -38 2 -40 30 -40 20 0 30 -5 30 -15 0 -21 18 -19 22 2 5 29 -4 93 -13 93 -5 0 -9 -16 -9 -36 0 -29 -3 -35 -16 -30 -9 3 -18 6 -20 6 -2 0 -4 14 -4 30 0 17 -4 30 -10 30 -5 0 -10 -18 -10 -40z"/>
 <path d="M3790 1920 c0 -33 4 -60 10 -60 6 0 10 27 10 60 0 33 -4 60 -10 60 -6 0 -10 -27 -10 -60z"/>
 <path d="M3830 1920 c0 -33 4 -60 10 -60 6 0 10 27 10 60 0 33 -4 60 -10 60 -6 0 -10 -27 -10 -60z"/>
 <path d="M4080 1940 c0 -22 5 -40 10 -40 6 0 10 18 10 40 0 22 -4 40 -10 40 -5 0 -10 -18 -10 -40z"/>
 <path d="M4125 1944 c-18 -43 -18 -44 -6 -44 5 0 13 9 16 20 7 23 25 27 25 6 0 -15 18 -31 26 -24 7 8 -25 78 -36 78 -5 0 -17 -16 -25 -36z"/>
 <path d="M3354 1684 c-54 -19 -118 -75 -151 -131 -40 -69 -45 -181 -11 -255 30 -65 87 -124 146 -150 51 -23 147 -26 210 -7 52 15 119 70 108 88 -6 9 -15 6 -35 -12 -44 -42 -92 -60 -158 -61 -54 -1 -65 3 -99 30 -56 45 -77 93 -82 190 -6 108 3 163 34 210 37 56 70 77 130 82 65 5 109 -9 169 -55 46 -35 63 -38 52 -8 -8 20 -92 73 -137 85 -49 14 -128 11 -176 -6z"/>
 <path d="M3939 1686 c-131 -46 -211 -171 -195 -303 8 -72 26 -112 72 -163 58 -64 122 -92 209 -92 88 0 146 23 205 82 60 60 80 109 80 200 0 95 -28 159 -94 217 -77 68 -188 91 -277 59z m175 -42 c60 -41 86 -107 86 -224 0 -123 -12 -165 -64 -216 -55 -55 -107 -65 -172 -34 -26 13 -56 38 -69 59 -58 87 -59 278 -2 363 54 80 147 102 221 52z"/>
 <path d="M2830 1425 l0 -265 -85 0 c-69 0 -85 -3 -85 -15 0 -13 31 -15 220 -15 189 0 220 2 220 15 0 12 -16 15 -85 15 l-85 0 0 265 0 265 -50 0 -50 0 0 -265z"/>
 </g>
<g id="layer104" fill="#d1a82a" stroke="none">
 <path d="M1182 2249 c-225 -38 -426 -228 -447 -424 -17 -158 50 -331 287 -740 114 -196 163 -252 268 -306 67 -34 214 -39 307 -10 86 26 178 80 247 146 110 105 127 191 62 317 l-38 74 48 107 c39 90 53 111 83 129 20 11 57 42 84 67 l47 45 0 -262 0 -262 152 0 c133 0 157 3 194 21 113 54 117 205 8 266 -21 13 -34 23 -27 23 6 0 25 14 42 30 23 23 33 48 46 108 9 42 19 85 22 95 4 15 -3 17 -51 17 l-55 0 -18 -82 c-27 -128 -64 -168 -155 -168 l-48 0 0 125 0 125 -45 0 -46 0 15 28 c23 45 29 110 15 160 -10 37 -28 63 -88 123 -63 62 -95 84 -181 127 -114 55 -236 94 -369 117 -91 16 -274 18 -359 4z m2 -156 c20 -9 40 -29 47 -45 7 -17 36 -47 66 -69 46 -35 53 -44 53 -75 0 -56 -35 -113 -83 -135 -76 -34 -131 -21 -240 58 -56 42 -77 77 -67 115 9 29 79 149 95 160 18 14 94 8 129 -9z m752 -388 c17 -13 17 -14 1 -15 -11 0 -26 -19 -43 -57 l-25 -58 -20 24 c-26 32 -24 67 6 96 28 28 53 31 81 10z m-553 -134 c13 -10 37 -82 37 -110 0 -6 -21 -26 -46 -46 -38 -28 -56 -35 -91 -35 -34 0 -55 -7 -87 -31 -34 -24 -52 -30 -81 -27 -51 4 -74 36 -87 126 -11 67 -10 74 9 99 11 15 30 30 42 33 45 10 289 4 304 -9z m1000 -165 c82 -34 101 -150 36 -216 -29 -28 -35 -30 -105 -30 l-74 0 0 130 0 130 55 0 c31 0 70 -6 88 -14z m-822 -119 c41 -39 78 -82 81 -94 14 -52 -10 -100 -87 -177 -42 -42 -83 -76 -91 -76 -20 0 -193 86 -216 107 -26 24 -22 55 18 146 41 95 64 123 119 148 72 33 92 27 176 -54z"/>
 <path d="M3354 1684 c-54 -19 -118 -75 -151 -131 -40 -69 -45 -181 -11 -255 30 -65 87 -124 146 -150 51 -23 147 -26 210 -7 52 15 119 70 108 88 -6 9 -15 6 -35 -12 -44 -42 -92 -60 -158 -61 -54 -1 -65 3 -99 30 -56 45 -77 93 -82 190 -6 108 3 163 34 210 37 56 70 77 130 82 65 5 109 -9 169 -55 46 -35 63 -38 52 -8 -8 20 -92 73 -137 85 -49 14 -128 11 -176 -6z"/>
 <path d="M3939 1686 c-131 -46 -211 -171 -195 -303 8 -72 26 -112 72 -163 58 -64 122 -92 209 -92 88 0 146 23 205 82 60 60 80 109 80 200 0 95 -28 159 -94 217 -77 68 -188 91 -277 59z m175 -42 c60 -41 86 -107 86 -224 0 -123 -12 -165 -64 -216 -55 -55 -107 -65 -172 -34 -26 13 -56 38 -69 59 -58 87 -59 278 -2 363 54 80 147 102 221 52z"/>
 <path d="M2830 1425 l0 -265 -85 0 c-69 0 -85 -3 -85 -15 0 -13 31 -15 220 -15 189 0 220 2 220 15 0 12 -16 15 -85 15 l-85 0 0 265 0 265 -50 0 -50 0 0 -265z"/>
 </g>
<g id="layer105" fill="#e2c879" stroke="none">
 <path d="M1468 2153 c-27 -30 -29 -74 -9 -144 19 -68 16 -90 -21 -141 -24 -33 38 -107 104 -123 28 -7 26 -9 107 80 67 74 65 105 -16 218 -88 121 -130 149 -165 110z"/>
 <path d="M3354 1684 c-54 -19 -118 -75 -151 -131 -40 -69 -45 -181 -11 -255 30 -65 87 -124 146 -150 51 -23 147 -26 210 -7 52 15 119 70 108 88 -6 9 -15 6 -35 -12 -44 -42 -92 -60 -158 -61 -54 -1 -65 3 -99 30 -56 45 -77 93 -82 190 -6 108 3 163 34 210 37 56 70 77 130 82 65 5 109 -9 169 -55 46 -35 63 -38 52 -8 -8 20 -92 73 -137 85 -49 14 -128 11 -176 -6z"/>
 <path d="M3939 1686 c-131 -46 -211 -171 -195 -303 8 -72 26 -112 72 -163 58 -64 122 -92 209 -92 88 0 146 23 205 82 60 60 80 109 80 200 0 95 -28 159 -94 217 -77 68 -188 91 -277 59z m175 -42 c60 -41 86 -107 86 -224 0 -123 -12 -165 -64 -216 -55 -55 -107 -65 -172 -34 -26 13 -56 38 -69 59 -58 87 -59 278 -2 363 54 80 147 102 221 52z"/>
 <path d="M1530 1684 c0 -3 57 -129 126 -280 108 -234 144 -298 144 -254 0 5 27 69 61 142 34 73 83 187 111 253 27 66 52 126 55 133 4 10 -8 12 -53 10 l-58 -3 -31 -77 -30 -78 -116 0 -116 0 -36 80 c-20 44 -41 80 -47 80 -5 0 -10 -3 -10 -6z m306 -191 c-30 -81 -92 -211 -97 -205 -4 4 -30 55 -58 115 l-50 107 106 0 c96 0 105 -2 99 -17z"/>
 <path d="M2130 1410 l0 -280 152 0 c133 0 157 3 194 21 113 54 117 205 8 266 -21 13 -34 23 -27 23 6 0 25 14 42 30 23 23 33 48 46 108 9 42 19 85 22 95 4 15 -3 17 -51 17 l-55 0 -18 -82 c-27 -128 -64 -168 -155 -168 l-48 0 0 125 0 125 -55 0 -55 0 0 -280z m253 -4 c82 -34 101 -150 36 -216 -29 -28 -35 -30 -105 -30 l-74 0 0 130 0 130 55 0 c31 0 70 -6 88 -14z"/>
 <path d="M2830 1425 l0 -265 -85 0 c-69 0 -85 -3 -85 -15 0 -13 31 -15 220 -15 189 0 220 2 220 15 0 12 -16 15 -85 15 l-85 0 0 265 0 265 -50 0 -50 0 0 -265z"/>
 </g>
<g id="layer106" fill="#f6edd4" stroke="none">
 <path d="M1469 2149 c-17 -17 -20 -30 -17 -72 3 -29 11 -73 18 -99 13 -45 13 -48 -14 -86 -26 -38 -27 -42 -12 -70 20 -38 74 -72 115 -72 25 0 35 7 55 38 13 20 31 44 41 52 10 8 24 30 32 48 17 42 6 69 -75 178 -71 95 -109 117 -143 83z"/>
 <path d="M3354 1684 c-54 -19 -118 -75 -151 -131 -40 -69 -45 -181 -11 -255 30 -65 87 -124 146 -150 51 -23 147 -26 210 -7 52 15 119 70 108 88 -6 9 -15 6 -35 -12 -44 -42 -92 -60 -158 -61 -54 -1 -65 3 -99 30 -56 45 -77 93 -82 190 -6 108 3 163 34 210 37 56 70 77 130 82 65 5 109 -9 169 -55 46 -35 63 -38 52 -8 -8 20 -92 73 -137 85 -49 14 -128 11 -176 -6z"/>
 <path d="M3939 1686 c-131 -46 -211 -171 -195 -303 8 -72 26 -112 72 -163 58 -64 122 -92 209 -92 88 0 146 23 205 82 60 60 80 109 80 200 0 95 -28 159 -94 217 -77 68 -188 91 -277 59z m175 -42 c60 -41 86 -107 86 -224 0 -123 -12 -165 -64 -216 -55 -55 -107 -65 -172 -34 -26 13 -56 38 -69 59 -58 87 -59 278 -2 363 54 80 147 102 221 52z"/>
 <path d="M1539 1668 c19 -47 239 -519 244 -525 4 -3 11 5 16 19 5 13 34 75 64 138 64 134 84 180 102 235 7 22 24 66 39 98 l26 57 -55 0 -55 0 -23 -52 c-13 -29 -27 -65 -31 -80 l-6 -28 -121 0 -120 0 -36 80 c-20 44 -40 80 -44 80 -5 0 -4 -10 0 -22z m269 -250 c-22 -51 -46 -106 -53 -123 l-13 -30 -47 100 c-76 163 -82 145 44 145 l110 0 -41 -92z"/>
 <path d="M2136 1674 c-3 -9 -6 -135 -6 -280 l0 -264 152 0 c133 0 157 3 194 21 113 54 117 205 8 266 -21 13 -34 23 -27 23 6 0 25 14 42 30 23 23 33 48 46 108 9 42 19 85 22 95 4 15 -3 17 -51 17 l-55 0 -18 -82 c-27 -128 -64 -168 -155 -168 l-48 0 0 125 0 125 -49 0 c-35 0 -51 -4 -55 -16z m247 -268 c82 -34 101 -150 36 -216 -29 -28 -35 -30 -105 -30 l-74 0 0 130 0 130 55 0 c31 0 70 -6 88 -14z"/>
 <path d="M2830 1425 l0 -265 -85 0 c-69 0 -85 -3 -85 -15 0 -13 31 -15 220 -15 189 0 220 2 220 15 0 12 -16 15 -85 15 l-85 0 0 265 0 265 -50 0 -50 0 0 -265z"/>
 </g>
<g id="layer107" fill="#ffffff" stroke="none">
 <path d="M1466 2138 c-20 -28 -20 -73 -1 -128 20 -57 19 -87 -5 -117 -27 -35 -25 -65 8 -95 61 -57 99 -62 137 -15 14 17 39 47 56 66 31 36 37 77 18 114 -7 12 -36 54 -65 93 -78 106 -117 127 -148 82z"/>
 <path d="M3354 1684 c-54 -19 -118 -75 -151 -131 -40 -69 -45 -181 -11 -255 30 -65 87 -124 146 -150 51 -23 147 -26 210 -7 52 15 119 70 108 88 -6 9 -15 6 -35 -12 -44 -42 -92 -60 -158 -61 -54 -1 -65 3 -99 30 -56 45 -77 93 -82 190 -6 108 3 163 34 210 37 56 70 77 130 82 65 5 109 -9 169 -55 46 -35 63 -38 52 -8 -8 20 -92 73 -137 85 -49 14 -128 11 -176 -6z"/>
 <path d="M3939 1686 c-131 -46 -211 -171 -195 -303 8 -72 26 -112 72 -163 58 -64 122 -92 209 -92 88 0 146 23 205 82 60 60 80 109 80 200 0 95 -28 159 -94 217 -77 68 -188 91 -277 59z m175 -42 c60 -41 86 -107 86 -224 0 -123 -12 -165 -64 -216 -55 -55 -107 -65 -172 -34 -26 13 -56 38 -69 59 -58 87 -59 278 -2 363 54 80 147 102 221 52z"/>
 <path d="M1657 1418 c69 -150 126 -274 128 -276 1 -1 17 33 35 75 17 43 38 85 45 93 17 20 97 202 91 208 -3 2 11 38 30 79 19 42 34 79 34 84 0 5 -23 9 -50 9 l-51 0 -20 -47 c-12 -27 -22 -57 -23 -68 -2 -11 -8 -29 -13 -40 -6 -11 -35 -75 -63 -142 -29 -68 -56 -123 -59 -123 -4 0 -26 44 -50 98 -80 175 -150 322 -155 322 -2 0 52 -123 121 -272z"/>
 <path d="M2136 1674 c-3 -9 -6 -135 -6 -280 l0 -264 152 0 c133 0 157 3 194 21 113 54 117 205 8 266 -21 13 -34 23 -27 23 6 0 25 14 42 30 23 23 33 48 46 108 9 42 19 85 22 95 4 15 -3 17 -51 17 l-55 0 -18 -82 c-27 -128 -64 -168 -155 -168 l-48 0 0 125 0 125 -49 0 c-35 0 -51 -4 -55 -16z m247 -268 c82 -34 101 -150 36 -216 -29 -28 -35 -30 -105 -30 l-74 0 0 130 0 130 55 0 c31 0 70 -6 88 -14z"/>
 <path d="M2830 1425 l0 -265 -85 0 c-69 0 -85 -3 -85 -15 0 -13 31 -15 220 -15 189 0 220 2 220 15 0 12 -16 15 -85 15 l-85 0 0 265 0 265 -50 0 -50 0 0 -265z"/>
 </g>

</svg>