<svg width="107" height="45" fill="none" xmlns="http://www.w3.org/2000/svg"><path d="M6.267 22.21c-.92 0-1.8-.11-2.64-.33-.82-.22-1.55-.53-2.19-.93-.36-.24-.62-.46-.78-.66-.14-.22-.21-.48-.21-.78 0-.26.07-.47.21-.63a.77.77 0 01.6-.27c.24 0 .59.15 1.05.45.6.36 1.19.65 1.77.87.6.2 1.34.3 2.22.3 1.08 0 1.92-.19 2.52-.57.6-.38.9-.93.9-1.65 0-.44-.11-.79-.33-1.05-.22-.28-.6-.52-1.14-.72-.54-.22-1.33-.44-2.37-.66-1.76-.38-3.02-.89-3.78-1.53-.76-.64-1.14-1.51-1.14-2.61 0-.86.24-1.62.72-2.28.48-.66 1.14-1.18 1.98-1.56.86-.38 1.83-.57 2.91-.57.78 0 1.53.11 2.25.33.74.2 1.39.49 1.95.87.68.48 1.02.98 1.02 1.5 0 .26-.08.48-.24.66-.16.18-.35.27-.57.27-.24 0-.6-.17-1.08-.51-.56-.36-1.09-.64-1.59-.84-.5-.2-1.12-.3-1.86-.3-.94 0-1.7.21-2.28.63-.56.42-.84.98-.84 1.68 0 .44.1.8.3 1.08.22.26.57.5 1.05.72.5.2 1.21.4 2.13.6 1.36.3 2.41.63 3.15.99.76.36 1.3.8 1.62 1.32.32.52.48 1.18.48 1.98 0 1.26-.53 2.28-1.59 3.06-1.06.76-2.46 1.14-4.2 1.14zm17.097-1.98c.7.06 1.05.38 1.05.96 0 .34-.13.6-.39.78-.24.16-.61.22-1.11.18l-.81-.06c-1.6-.12-2.78-.6-3.54-1.44-.76-.84-1.14-2.11-1.14-3.81V9.31h-2.01c-.34 0-.61-.08-.81-.24a.934.934 0 01-.27-.69c0-.3.09-.54.27-.72.2-.18.47-.27.81-.27h2.01V4c0-.38.11-.67.33-.87.22-.22.52-.33.9-.33.36 0 .65.11.87.33.22.2.33.49.33.87v3.39h3.33c.32 0 .57.09.75.27.2.18.3.42.3.72 0 .28-.1.51-.3.69-.18.16-.43.24-.75.24h-3.33v7.65c0 1.1.22 1.9.66 2.4.46.48 1.14.75 2.04.81l.81.06zM38.91 7.09c.38 0 .67.11.87.33.22.22.33.51.33.87v12.69c0 .34-.11.62-.33.84-.2.22-.49.33-.87.33-.36 0-.65-.1-.87-.3-.2-.22-.3-.5-.3-.84v-1.5a4.73 4.73 0 01-1.95 2.01c-.82.46-1.75.69-2.79.69-1.74 0-3.05-.48-3.93-1.44-.88-.98-1.32-2.42-1.32-4.32V8.29c0-.36.11-.65.33-.87.22-.22.52-.33.9-.33s.67.11.87.33c.22.22.33.51.33.87v8.1c0 1.3.26 2.26.78 2.88.52.6 1.34.9 2.46.9 1.28 0 2.31-.41 3.09-1.23.78-.84 1.17-1.94 1.17-3.3V8.29c0-.36.11-.65.33-.87.22-.22.52-.33.9-.33zM57.356.7c.38 0 .68.11.9.33.22.22.33.5.33.84v19.08c0 .36-.11.65-.33.87-.22.22-.52.33-.9.33s-.68-.11-.9-.33c-.2-.22-.3-.51-.3-.87v-1.62c-.44.92-1.09 1.63-1.95 2.13-.84.5-1.83.75-2.97.75-1.28 0-2.41-.32-3.39-.96-.98-.64-1.74-1.53-2.28-2.67-.54-1.16-.81-2.5-.81-4.02 0-1.5.27-2.82.81-3.96.54-1.14 1.3-2.02 2.28-2.64.98-.62 2.11-.93 3.39-.93 1.14 0 2.13.25 2.97.75.86.5 1.51 1.21 1.95 2.13V1.87c0-.36.1-.64.3-.84.22-.22.52-.33.9-.33zm-5.64 19.5c1.42 0 2.51-.48 3.27-1.44.78-.98 1.17-2.36 1.17-4.14 0-1.78-.39-3.15-1.17-4.11-.76-.96-1.85-1.44-3.27-1.44s-2.53.48-3.33 1.44c-.78.96-1.17 2.31-1.17 4.05 0 1.78.39 3.17 1.17 4.17.8.98 1.91 1.47 3.33 1.47zm23.68-1.59c.22 0 .41.09.57.27.16.18.24.41.24.69 0 .5-.35.96-1.05 1.38-.72.42-1.48.74-2.28.96-.8.2-1.58.3-2.34.3-2.26 0-4.05-.67-5.37-2.01-1.3-1.34-1.95-3.19-1.95-5.55 0-1.5.29-2.82.87-3.96.58-1.16 1.39-2.06 2.43-2.7 1.06-.64 2.26-.96 3.6-.96 1.9 0 3.41.62 4.53 1.86 1.12 1.24 1.68 2.92 1.68 5.04 0 .4-.08.69-.24.87-.16.18-.42.27-.78.27h-9.66c.18 3.44 1.81 5.16 4.89 5.16.78 0 1.45-.1 2.01-.3.56-.22 1.16-.51 1.8-.87.52-.3.87-.45 1.05-.45zm-5.25-9.69c-1.28 0-2.31.4-3.09 1.2-.76.8-1.21 1.93-1.35 3.39h8.49c-.04-1.48-.41-2.61-1.11-3.39-.7-.8-1.68-1.2-2.94-1.2zm18.111-1.89c3.5 0 5.25 1.93 5.25 5.79v8.13c0 .38-.11.68-.33.9-.2.2-.49.3-.87.3s-.68-.1-.9-.3c-.22-.22-.33-.52-.33-.9v-7.98c0-1.36-.27-2.35-.81-2.97-.52-.62-1.36-.93-2.52-.93-1.34 0-2.41.41-3.21 1.23-.8.82-1.2 1.93-1.2 3.33v7.32c0 .38-.11.68-.33.9-.2.2-.49.3-.87.3s-.68-.1-.9-.3c-.22-.22-.33-.52-.33-.9V8.29c0-.36.11-.65.33-.87.22-.22.52-.33.9-.33.36 0 .64.11.84.33.22.22.33.5.33.84v1.53c.48-.9 1.15-1.58 2.01-2.04.86-.48 1.84-.72 2.94-.72zm17.451 13.2c.7.06 1.05.38 1.05.96 0 .34-.13.6-.39.78-.24.16-.61.22-1.11.18l-.81-.06c-1.6-.12-2.78-.6-3.54-1.44-.76-.84-1.14-2.11-1.14-3.81V9.31h-2.01c-.34 0-.61-.08-.81-.24a.934.934 0 01-.27-.69c0-.3.09-.54.27-.72.2-.18.47-.27.81-.27h2.01V4c0-.38.11-.67.33-.87.22-.22.52-.33.9-.33.36 0 .65.11.87.33.22.2.33.49.33.87v3.39h3.33c.32 0 .57.09.75.27.2.18.3.42.3.72 0 .28-.1.51-.3.69-.18.16-.43.24-.75.24h-3.33v7.65c0 1.1.22 1.9.66 2.4.46.48 1.14.75 2.04.81l.81.06zM25.296 29.03c3.66 0 5.49 1.92 5.49 5.76v8.16c0 .36-.11.65-.33.87-.2.22-.48.33-.84.33s-.65-.11-.87-.33c-.22-.22-.33-.51-.33-.87v-1.44c-.38.86-.96 1.53-1.74 2.01-.78.46-1.68.69-2.7.69-.94 0-1.81-.19-2.61-.57-.78-.38-1.4-.91-1.86-1.59a3.93 3.93 0 01-.69-2.25c0-1.1.28-1.95.84-2.55.56-.62 1.48-1.06 2.76-1.32 1.28-.28 3.06-.42 5.34-.42h.66v-.99c0-1.2-.25-2.08-.75-2.64-.48-.56-1.27-.84-2.37-.84-1.36 0-2.74.37-4.14 1.11-.54.34-.92.51-1.14.51a.77.77 0 01-.6-.27c-.16-.18-.24-.41-.24-.69 0-.28.08-.52.24-.72.18-.22.46-.44.84-.66.7-.4 1.49-.71 2.37-.93.9-.24 1.79-.36 2.67-.36zm-.99 13.26c1.2 0 2.18-.4 2.94-1.2.78-.82 1.17-1.87 1.17-3.15v-.87h-.54c-1.76 0-3.1.08-4.02.24-.92.14-1.58.39-1.98.75-.38.34-.57.85-.57 1.53 0 .78.28 1.43.84 1.95.58.5 1.3.75 2.16.75zm19.158-13.2c.84-.06 1.26.28 1.26 1.02 0 .32-.09.58-.27.78-.18.18-.49.29-.93.33l-.9.09c-1.34.12-2.34.6-3 1.44-.64.82-.96 1.79-.96 2.91v7.29c0 .4-.11.7-.33.9-.22.2-.51.3-.87.3s-.66-.1-.9-.3c-.22-.22-.33-.52-.33-.9V30.29c0-.38.12-.67.36-.87.24-.22.53-.33.87-.33.32 0 .59.11.81.33.22.2.33.48.33.84v1.68c.42-.88 1.01-1.55 1.77-2.01.78-.46 1.67-.73 2.67-.81l.42-.03zm12.268 13.14c.7.06 1.05.38 1.05.96 0 .34-.13.6-.39.78-.24.16-.61.22-1.11.18l-.81-.06c-1.6-.12-2.78-.6-3.54-1.44-.76-.84-1.14-2.11-1.14-3.81v-7.53h-2.01c-.34 0-.61-.08-.81-.24a.934.934 0 01-.27-.69c0-.3.09-.54.27-.72.2-.18.47-.27.81-.27h2.01V26c0-.38.11-.67.33-.87.22-.22.52-.33.9-.33.36 0 .65.11.87.33.22.2.33.49.33.87v3.39h3.33c.32 0 .57.09.75.27.2.18.3.42.3.72 0 .28-.1.51-.3.69-.18.16-.43.24-.75.24h-3.33v7.65c0 1.1.22 1.9.66 2.4.46.48 1.14.75 2.04.81l.81.06zm10.476 1.98c-1.36 0-2.57-.31-3.63-.93-1.04-.62-1.85-1.5-2.43-2.64-.56-1.14-.84-2.46-.84-3.96s.29-2.83.87-3.99c.6-1.16 1.43-2.06 2.49-2.7 1.06-.64 2.28-.96 3.66-.96.76 0 1.51.11 2.25.33.76.2 1.42.5 1.98.9.36.24.61.48.75.72.16.22.24.47.24.75s-.08.51-.24.69c-.14.18-.33.27-.57.27-.14 0-.29-.04-.45-.12-.16-.08-.3-.16-.42-.24a1.5 1.5 0 00-.21-.15 9.3 9.3 0 00-1.5-.81c-.46-.2-1.03-.3-1.71-.3-1.46 0-2.6.5-3.42 1.5-.8.98-1.2 2.35-1.2 4.11 0 1.76.4 3.12 1.2 4.08.82.96 1.96 1.44 3.42 1.44.68 0 1.26-.1 1.74-.3.5-.2 1-.47 1.5-.81.22-.14.43-.26.63-.36.2-.1.37-.15.51-.15.22 0 .4.09.54.27.16.18.24.41.24.69 0 .26-.07.5-.21.72-.14.2-.4.43-.78.69-.56.38-1.24.69-2.04.93-.78.22-1.57.33-2.37.33zm15.385 0c-1.38 0-2.6-.31-3.66-.93-1.04-.62-1.85-1.5-2.43-2.64-.56-1.16-.84-2.5-.84-4.02 0-1.52.28-2.85.84-3.99.58-1.16 1.39-2.05 2.43-2.67 1.06-.62 2.28-.93 3.66-.93 1.38 0 2.6.31 3.66.93 1.06.62 1.87 1.51 2.43 2.67.58 1.14.87 2.47.87 3.99s-.29 2.86-.87 4.02c-.56 1.14-1.37 2.02-2.43 2.64-1.06.62-2.28.93-3.66.93zm0-2.01c1.44 0 2.54-.47 3.3-1.41.78-.96 1.17-2.35 1.17-4.17 0-1.78-.39-3.15-1.17-4.11-.78-.98-1.88-1.47-3.3-1.47s-2.52.49-3.3 1.47c-.78.96-1.17 2.33-1.17 4.11 0 1.8.38 3.18 1.14 4.14.78.96 1.89 1.44 3.33 1.44z" fill="#fff"/></svg>